<svg width="44" height="44" viewBox="0 0 44 44" fill="none" xmlns="http://www.w3.org/2000/svg">
<path fill-rule="evenodd" clip-rule="evenodd" d="M0 22C0 34.1503 9.84974 44 22 44C34.1503 44 44 34.1503 44 22C44 9.84974 34.1503 0 22 0C9.84974 0 0 9.84974 0 22ZM40 22C40 31.9411 31.9411 40 22 40C12.0589 40 4 31.9411 4 22C4 12.0589 12.0589 4 22 4C31.9411 4 40 12.0589 40 22ZM22.0007 33.9967C23.1056 33.9967 24.0013 33.1013 24.0013 31.9967C24.0013 30.8921 23.1056 29.9967 22.0007 29.9967C20.8957 29.9967 20 30.8921 20 31.9967C20 33.1013 20.8957 33.9967 22.0007 33.9967ZM24.0072 9.9967H20.0059V25.9967H24.0072V9.9967Z" fill="#0364FF"/>
</svg>
